<svg width="238.401" height="99.401" viewBox="0 0 238.401 99.401" xmlns="http://www.w3.org/2000/svg"><g id="svgGroup" stroke-linecap="round" fill-rule="evenodd" font-size="9pt" stroke="#000" stroke-width="0" fill="#dbc1ac" style="stroke:#000;stroke-width:0;fill:#dbc1ac"><path d="M 17.536 82.07 A 52.717 52.717 0 0 0 24.501 82.501 A 75.904 75.904 0 0 0 30.263 82.285 A 62.062 62.062 0 0 0 57.201 74.101 Q 63.501 70.501 67.301 64.901 Q 71.101 59.401 71.101 53.501 A 20.179 20.179 0 0 0 67.266 41.781 Q 64.887 38.359 61.032 35.201 A 56.398 56.398 0 0 0 53.201 29.901 A 58.556 58.556 0 0 1 49.064 27.289 Q 44.103 23.836 41.983 20.472 A 9.282 9.282 0 0 1 40.401 15.501 Q 40.401 11.619 43.552 8.41 A 18.851 18.851 0 0 1 46.501 6.001 Q 52.201 2.101 59.101 2.101 A 26.425 26.425 0 0 1 59.79 2.11 Q 62.178 2.172 64.225 2.67 A 14.515 14.515 0 0 1 69.801 5.301 A 8.621 8.621 0 0 1 69.916 5.391 Q 72.007 7.057 71.981 9.2 A 4.703 4.703 0 0 1 71.901 10.001 Q 71.439 8.615 69.675 8.296 A 6.617 6.617 0 0 0 68.501 8.201 A 6.748 6.748 0 0 0 66.73 8.413 Q 63.801 9.211 63.801 13.001 A 4.338 4.338 0 0 0 64.05 14.48 A 4.379 4.379 0 0 0 65.101 16.101 A 6.167 6.167 0 0 0 65.579 16.533 A 4.532 4.532 0 0 0 68.501 17.601 Q 71.101 17.601 72.701 15.201 Q 74.401 12.701 74.401 9.801 A 10.804 10.804 0 0 0 74.303 8.322 A 7.155 7.155 0 0 0 71.101 3.101 Q 66.501 0.001 57.601 0.001 Q 49.801 0.001 43.101 3.701 Q 40.592 5.076 38.779 6.746 A 13.994 13.994 0 0 0 34.401 14.201 A 11.173 11.173 0 0 0 34.218 15.204 A 13.297 13.297 0 0 0 34.101 17.001 Q 34.101 20.83 36.493 24.389 A 21.128 21.128 0 0 0 39.401 27.801 A 21.567 21.567 0 0 0 39.463 27.858 Q 40.411 28.732 41.846 29.848 A 75.444 75.444 0 0 0 43.301 30.951 A 82.08 82.08 0 0 0 44.539 31.848 Q 45.625 32.621 46.895 33.478 A 170.924 170.924 0 0 0 49.501 35.201 A 50.483 50.483 0 0 1 54.572 38.888 Q 57.88 41.645 60.028 44.587 A 19.206 19.206 0 0 1 64.001 56.101 A 16.967 16.967 0 0 1 59.274 68.097 A 24.951 24.951 0 0 1 54.001 72.301 A 50.264 50.264 0 0 1 52.798 73.008 A 54.128 54.128 0 0 1 40.601 78.051 A 52.475 52.475 0 0 1 34.699 79.339 A 63.255 63.255 0 0 1 24.701 80.101 A 40.418 40.418 0 0 1 21.104 79.947 Q 18.242 79.691 15.829 79.009 A 18.937 18.937 0 0 1 10.301 76.501 A 15.04 15.04 0 0 1 8.674 75.255 A 10.691 10.691 0 0 1 4.901 66.901 A 13.215 13.215 0 0 1 5.161 64.286 Q 6.14 59.425 10.801 55.001 A 25.393 25.393 0 0 1 11.328 54.513 Q 17.441 49.017 27.501 47.101 Q 29.048 46.791 30.807 46.641 A 41.231 41.231 0 0 1 34.301 46.501 A 49.336 49.336 0 0 1 37.551 46.602 Q 46.91 47.221 50.001 51.601 Q 50.809 52.589 50.892 51.399 A 4.343 4.343 0 0 0 50.901 51.101 Q 50.901 50.301 50.501 49.801 A 10.351 10.351 0 0 0 49.638 48.77 Q 45.279 44.201 34.801 44.201 Q 32.901 44.201 31.001 44.401 Q 29.101 44.601 27.401 44.901 A 61.227 61.227 0 0 0 26.721 45.035 Q 21.648 46.069 17.382 47.843 A 36.269 36.269 0 0 0 7.201 54.101 Q 4.248 56.726 2.506 59.502 A 15.4 15.4 0 0 0 0.001 67.801 Q 0.001 74.401 6.501 78.501 A 23.286 23.286 0 0 0 11.134 80.623 Q 14.03 81.601 17.536 82.07 Z M 189.101 88.201 L 191.001 88.101 A 9.64 9.64 0 0 0 190.516 89.869 A 7.934 7.934 0 0 0 190.401 91.201 Q 190.401 96.601 196.701 96.601 Q 201.549 96.601 206.708 89.919 A 42.261 42.261 0 0 0 208.101 88.001 Q 209.992 85.251 211.956 81.541 A 96.615 96.615 0 0 0 212.601 80.301 Q 214.901 75.801 217.201 70.001 Q 218.801 66.201 220.251 62.401 Q 221.701 58.601 223.201 54.801 Q 220.875 58.915 219.23 61.67 A 166.261 166.261 0 0 1 218.851 62.301 Q 217.101 65.201 216.301 66.301 A 29.448 29.448 0 0 1 213.716 69.361 Q 209.852 73.301 206.101 73.301 A 6.024 6.024 0 0 1 203.553 72.801 Q 200.989 71.616 200.579 67.623 A 15.906 15.906 0 0 1 200.501 66.001 Q 200.501 61.201 202.701 55.801 Q 205.901 48.001 209.301 41.101 A 3.69 3.69 0 0 1 211.941 39.112 A 5.703 5.703 0 0 1 213.101 39.001 L 218.401 39.001 Q 216.104 40.642 213.604 45.245 A 52.351 52.351 0 0 0 212.501 47.401 A 145.854 145.854 0 0 0 209.604 53.565 Q 205.501 62.907 205.501 67.501 Q 205.501 70.801 207.901 70.801 A 5.005 5.005 0 0 0 210.562 69.893 Q 213.776 67.839 217.919 61.143 A 88.32 88.32 0 0 0 219.601 58.301 Q 220.069 57.365 222.025 53.496 A 8477.095 8477.095 0 0 1 222.301 52.951 Q 223.985 49.62 226.549 44.385 A 1657.987 1657.987 0 0 0 228.201 41.001 A 3.69 3.69 0 0 1 230.841 39.012 A 5.703 5.703 0 0 1 232.001 38.901 L 238.401 38.901 Q 237.101 39.901 234.801 42.501 Q 234.085 43.664 233.09 45.467 A 140 140 0 0 0 232.851 45.901 A 46.366 46.366 0 0 0 231.967 47.602 Q 231.496 48.554 231.002 49.644 A 88.123 88.123 0 0 0 230.401 51.001 Q 229.176 53.987 227.365 58.643 A 986.041 986.041 0 0 0 226.201 61.651 A 320.562 320.562 0 0 1 224.04 67.1 Q 223.052 69.531 221.917 72.232 A 643.979 643.979 0 0 1 219.501 77.901 Q 217.401 82.901 215.351 86.451 Q 213.868 89.018 212.569 90.879 A 33.943 33.943 0 0 1 211.601 92.201 Q 205.801 99.401 197.601 99.401 A 13.196 13.196 0 0 1 194.499 99.059 A 8.32 8.32 0 0 1 189.601 95.901 Q 188.501 94.201 188.501 91.401 A 12.891 12.891 0 0 1 188.543 90.317 Q 188.635 89.235 188.925 88.55 A 2.8 2.8 0 0 1 189.101 88.201 Z M 105.001 45.801 L 107.001 46.101 A 7.716 7.716 0 0 0 107.656 46.224 Q 108.537 46.348 109.201 46.201 A 9.176 9.176 0 0 0 108.62 46.847 Q 108.057 47.529 107.384 48.54 A 35.839 35.839 0 0 0 107.051 49.051 Q 106.201 50.376 105.19 52.233 A 95.067 95.067 0 0 0 104.201 54.101 Q 102.501 57.401 101.401 60.101 A 33.806 33.806 0 0 0 100.623 62.195 Q 100.138 63.654 99.901 64.901 Q 99.701 65.901 99.601 66.751 Q 99.501 67.601 99.501 68.301 A 7.216 7.216 0 0 0 99.55 69.182 Q 99.763 70.901 100.901 70.901 Q 102.757 70.901 105.904 67.112 A 37.086 37.086 0 0 0 106.401 66.501 L 106.801 66.001 L 108.201 66.901 L 107.801 67.501 A 24.944 24.944 0 0 1 105.885 69.984 Q 102.763 73.501 99.701 73.501 A 6.088 6.088 0 0 1 98.045 73.286 A 4.679 4.679 0 0 1 96.101 72.201 A 5.056 5.056 0 0 1 94.674 70.123 Q 94.351 69.29 94.211 68.248 A 13.058 13.058 0 0 1 94.101 66.501 A 17.977 17.977 0 0 1 94.273 64.092 Q 94.495 62.457 95.001 60.601 A 56.04 56.04 0 0 1 91.968 65.186 Q 90.355 67.371 88.678 69.118 A 32.312 32.312 0 0 1 87.901 69.901 Q 84.499 73.034 81.739 73.362 A 5.395 5.395 0 0 1 81.101 73.401 A 4.539 4.539 0 0 1 77.549 71.823 A 6.15 6.15 0 0 1 77.001 71.101 Q 75.401 68.901 75.401 65.001 A 24.055 24.055 0 0 1 77.46 55.504 Q 78.921 52.084 81.417 48.591 A 51.21 51.21 0 0 1 83.901 45.401 Q 85.301 43.701 87.101 42.301 Q 88.901 40.901 91.001 39.801 Q 95.301 37.601 99.301 37.601 A 12.11 12.11 0 0 1 102.792 38.079 A 9.328 9.328 0 0 1 107.101 40.801 Q 107.801 41.501 107.801 42.401 Q 107.801 44.055 106.096 43.721 A 3.904 3.904 0 0 1 106.001 43.701 Q 105.125 40.548 102.178 40.156 A 6.662 6.662 0 0 0 101.301 40.101 Q 97.722 40.101 93.054 44.385 A 38.524 38.524 0 0 0 91.401 46.001 Q 89.401 48.201 87.601 50.551 Q 85.801 52.901 84.201 55.501 Q 80.496 61.704 79.983 65.904 A 10.71 10.71 0 0 0 79.901 67.201 A 6.521 6.521 0 0 0 80.008 68.44 Q 80.396 70.434 82.192 70.588 A 3.632 3.632 0 0 0 82.501 70.601 A 4.895 4.895 0 0 0 84.551 70.104 Q 86.677 69.122 89.201 66.201 A 37.54 37.54 0 0 0 91.058 63.89 Q 92.263 62.269 93.501 60.301 Q 95.701 56.801 98.101 52.201 A 51.407 51.407 0 0 1 98.794 50.925 Q 99.388 49.869 99.901 49.101 Q 100.701 47.901 101.201 47.301 Q 102.801 45.701 105.001 45.801 Z M 124.901 39.001 L 131.001 39.001 A 14.703 14.703 0 0 0 128.987 40.771 A 19.174 19.174 0 0 0 127.601 42.401 Q 126.001 44.501 124.601 47.401 Q 118.101 60.601 118.101 66.301 A 8.119 8.119 0 0 0 118.245 67.907 Q 118.75 70.397 121.021 70.668 A 4.902 4.902 0 0 0 121.601 70.701 Q 127.601 70.701 134.201 54.201 Q 132.901 51.501 132.901 47.801 Q 132.901 46.001 133.401 44.201 A 15.594 15.594 0 0 1 134.357 41.726 Q 135.011 40.404 135.874 39.422 A 8.48 8.48 0 0 1 136.701 38.601 A 10.151 10.151 0 0 1 137.802 37.731 Q 138.405 37.324 138.977 37.095 A 3.828 3.828 0 0 1 140.401 36.801 Q 141.944 36.801 142.164 37.977 A 2.306 2.306 0 0 1 142.201 38.401 L 141.701 40.201 A 323.756 323.756 0 0 1 139.824 45.835 Q 138.942 48.399 138.104 50.67 A 184.072 184.072 0 0 1 137.551 52.151 Q 135.601 57.301 133.801 60.801 Q 126.901 74.001 119.101 74.001 A 7.641 7.641 0 0 1 116.17 73.482 Q 112.86 72.115 112.457 67.147 A 17.912 17.912 0 0 1 112.401 65.701 A 23.747 23.747 0 0 1 113.141 59.943 A 31.333 31.333 0 0 1 114.501 55.801 Q 116.101 51.901 117.751 48.201 Q 119.401 44.501 121.001 41.101 A 3.713 3.713 0 0 1 123.682 39.116 A 6.073 6.073 0 0 1 124.901 39.001 Z M 185.701 39.301 L 187.801 39.601 A 30.477 30.477 0 0 0 188.385 39.679 Q 188.652 39.712 188.893 39.736 A 17.851 17.851 0 0 0 189.051 39.751 A 4.056 4.056 0 0 0 189.295 39.766 Q 189.693 39.778 190.001 39.701 A 5.049 5.049 0 0 0 188.893 40.489 Q 187.305 41.928 185.371 45.316 A 46.762 46.762 0 0 0 185.351 45.351 Q 182.76 49.898 179.642 57.648 A 199.867 199.867 0 0 0 179.501 58.001 Q 180.485 56.748 181.949 54.736 A 223.85 223.85 0 0 0 182.301 54.251 A 71.799 71.799 0 0 1 183.702 52.383 Q 184.498 51.355 185.432 50.213 A 142.388 142.388 0 0 1 186.601 48.801 Q 189.501 45.401 192.601 42.501 Q 195.701 39.601 198.601 39.601 Q 200.282 39.601 201.268 40.402 A 3.129 3.129 0 0 1 201.901 41.101 A 5.978 5.978 0 0 1 202.901 44.441 A 7.177 7.177 0 0 1 202.901 44.501 A 5.485 5.485 0 0 1 201.572 48.084 A 7.404 7.404 0 0 1 201.101 48.601 A 8.542 8.542 0 0 1 200.055 49.501 Q 198.803 50.401 197.601 50.401 A 3.616 3.616 0 0 1 196.661 50.271 A 4.556 4.556 0 0 1 196.151 50.101 A 2.321 2.321 0 0 1 196.139 50.096 Q 195.721 49.926 195.54 49.661 A 0.796 0.796 0 0 1 195.401 49.201 Q 195.401 48.701 195.601 48.251 A 2.255 2.255 0 0 0 195.763 47.697 A 3.071 3.071 0 0 0 195.801 47.201 A 2.325 2.325 0 0 0 195.735 46.621 Q 195.543 45.876 194.787 45.734 A 2.096 2.096 0 0 0 194.401 45.701 A 2.746 2.746 0 0 0 194.054 45.725 Q 193.694 45.771 193.212 45.905 A 10.403 10.403 0 0 0 193.051 45.951 Q 192.201 46.201 190.801 47.601 A 75.05 75.05 0 0 0 188.265 50.077 Q 187 51.367 185.656 52.845 A 125.831 125.831 0 0 0 184.751 53.851 Q 181.501 57.501 178.651 62.001 A 44.586 44.586 0 0 0 174.348 70.896 A 49.957 49.957 0 0 0 174.001 71.901 A 2.021 2.021 0 0 1 172.881 73.111 Q 172.483 73.299 171.958 73.398 A 6.611 6.611 0 0 1 171.001 73.501 A 66.866 66.866 0 0 0 169.828 73.579 Q 167.643 73.746 167.155 73.972 A 0.574 0.574 0 0 0 167.101 74.001 Q 169.001 69.201 172.151 62.001 A 6426.87 6426.87 0 0 0 175.07 55.318 Q 177.051 50.776 179.301 45.601 Q 180.101 43.601 180.851 42.401 A 24.04 24.04 0 0 1 181.349 41.635 Q 181.807 40.96 182.201 40.501 A 3.494 3.494 0 0 1 184.768 39.256 Q 185.212 39.234 185.701 39.301 Z M 145.029 72.753 A 8.464 8.464 0 0 0 148.201 73.301 Q 153.301 73.301 159.401 67.401 A 39.695 39.695 0 0 0 159.743 67.055 A 34.936 34.936 0 0 0 166.901 56.501 A 28.169 28.169 0 0 0 168.405 52.221 A 20.802 20.802 0 0 0 169.101 47.001 Q 169.101 38.301 161.701 38.301 A 10.838 10.838 0 0 0 158.114 38.941 Q 156.418 39.533 154.654 40.674 A 26.129 26.129 0 0 0 151.501 43.101 Q 146.001 48.001 143.001 55.101 A 28.131 28.131 0 0 0 141.565 59.292 A 20.848 20.848 0 0 0 140.901 64.401 Q 140.901 71.093 145.029 72.753 Z M 149.801 71.101 A 6.464 6.464 0 0 0 152.023 70.683 Q 152.894 70.365 153.804 69.805 A 13.684 13.684 0 0 0 154.701 69.201 A 13.314 13.314 0 0 0 156.628 67.439 Q 158.484 65.422 160.585 61.987 A 73.327 73.327 0 0 0 162.201 59.201 A 57.581 57.581 0 0 0 164.373 54.956 Q 166.327 50.672 166.708 47.483 A 12.494 12.494 0 0 0 166.801 46.001 Q 166.801 42.042 163.861 41.566 A 5.377 5.377 0 0 0 163.001 41.501 A 5.887 5.887 0 0 0 160.741 41.991 Q 158.95 42.736 156.921 44.608 A 24.941 24.941 0 0 0 156.201 45.301 A 28.353 28.353 0 0 0 152.29 50.247 A 37.498 37.498 0 0 0 149.901 54.701 A 57.7 57.7 0 0 0 148.209 58.682 Q 146.401 63.466 146.401 66.701 Q 146.401 70.792 149.341 71.079 A 4.739 4.739 0 0 0 149.801 71.101 Z M 98.399 32.269 A 1.33 1.33 0 0 0 98.701 32.301 A 0.505 0.505 0 0 0 98.787 32.291 Q 99.202 32.217 100.801 31.551 A 236.908 236.908 0 0 0 100.808 31.548 Q 102.605 30.799 104.801 29.801 A 606.016 606.016 0 0 0 106.108 29.205 Q 106.727 28.922 107.277 28.668 A 290.189 290.189 0 0 0 108.501 28.101 Q 110.048 27.276 110.797 26.318 A 3.059 3.059 0 0 0 111.501 24.401 A 3.679 3.679 0 0 0 111.499 24.297 Q 111.455 22.701 110.001 22.701 A 0.409 0.409 0 0 0 109.986 22.701 Q 109.57 22.716 108.264 23.559 A 29.484 29.484 0 0 0 107.601 24.001 A 72.455 72.455 0 0 0 105.609 25.416 A 99.762 99.762 0 0 0 103.451 27.051 A 273.574 273.574 0 0 0 102.103 28.105 Q 100.685 29.222 99.551 30.151 A 96.875 96.875 0 0 0 99.157 30.475 Q 98.081 31.365 97.927 31.556 A 0.099 0.099 0 0 0 97.901 31.601 A 1.002 1.002 0 0 0 97.916 31.779 Q 97.987 32.173 98.399 32.269 Z"/></g></svg>